<?xml version="1.0" standalone="no"?><!DOCTYPE svg PUBLIC "-//W3C//DTD SVG 1.1//EN" "http://www.w3.org/Graphics/SVG/1.1/DTD/svg11.dtd"><svg t="1622362707821" class="icon" viewBox="0 0 1024 1024" version="1.1" xmlns="http://www.w3.org/2000/svg" p-id="21531" xmlns:xlink="http://www.w3.org/1999/xlink" width="200" height="200"><defs><style type="text/css"></style></defs><path d="M832.753 852.33c0-48.189 39.153-87.342 88.847-87.342s87.341 39.153 87.341 87.341c0 48.189-39.153 88.847-87.341 88.847s-88.847-39.152-88.847-88.847z" fill="#FF9932" p-id="21532"></path><path d="M834.259 673.13l-128-51.2c-10.541-4.518-10.541-12.048-6.024-22.589 12.047-30.117 18.07-64.753 18.07-97.882 0-144.565-121.976-266.541-266.54-266.541S185.224 358.4 185.224 501.458c0 33.13 9.035 69.271 21.082 99.39 3.012 6.023 3.012 13.552 0 19.576-3.012 4.517-6.024 0-10.541 1.505L64.753 664.094c-1.506 1.506-4.518 1.506-6.024 1.506-9.035 0-15.058-4.518-18.07-13.553C21.082 602.353 10.54 552.66 10.54 501.46c0-242.447 198.777-441.224 441.224-441.224s441.223 197.27 441.223 439.718c0 57.223-10.54 111.435-30.117 162.635-1.506 4.518-6.024 9.036-12.047 10.541-3.012 1.506-4.518 1.506-7.53 1.506s-6.023 0-9.035-1.506z" fill="#0FB264" p-id="21533"></path><path d="M58.73 703.247c-7.53-15.059-13.554-30.118-19.577-45.176-3.012-7.53-3.012-13.553-3.012-16.565 0-48.188 39.153-87.341 88.847-87.341 36.141 0 67.765 22.588 82.824 54.211 1.506 3.012 6.023 12.048 9.035 16.565C262.024 712.282 352.377 768 450.26 768c96.376 0 185.223-54.212 231.906-138.541 4.517-9.035 16.564-30.118 18.07-30.118 15.06-30.117 42.165-43.67 75.294-43.67 49.695 0 88.847 39.153 88.847 87.34 0 6.024 0 13.554-4.517 22.589l-9.035 22.588v1.506c-1.506 4.518-3.012 7.53-6.024 12.047-75.294 149.083-225.882 242.447-394.541 242.447-165.647-3.012-314.73-93.364-391.53-240.94z" fill="#FF9932" p-id="21534"></path></svg>