<?xml version="1.0" encoding="utf-8"?>
<!-- Generator: Adobe Illustrator 24.0.1, SVG Export Plug-In . SVG Version: 6.00 Build 0)  -->
<svg version="1.1" id="图层_1" xmlns="http://www.w3.org/2000/svg" xmlns:xlink="http://www.w3.org/1999/xlink" x="0px" y="0px"
	 viewBox="0 0 200 200" style="enable-background:new 0 0 200 200;" xml:space="preserve">
<style type="text/css">
	.st0{fill:#E94924;}
</style>
<path class="st0" d="M144.8,50.2l13.1,3.9l1.3,20.9c-8.3-3.5-16.5-6.1-25.2-7.8c-10.4-2.6-21.3-4.4-31.8-4.4
	c-4.4,0-8.7,0.4-12.6,1.7c-2.2,0.9-4.4,2.2-5.2,4.4c-0.9,1.7-0.4,3.5,0.4,4.8c1.3,2.2,3.5,3.9,5.7,4.8c4.8,2.6,10.4,3.9,16.1,5.2
	c10.9,2.6,21.8,5.2,32.2,10c4.8,2.2,9.6,4.8,13.9,8.3c2.6,2.2,5.2,4.8,7,7.8c3.9,7,3.9,16.5-0.4,23.5c-3.5,5.7-9.6,10-15.7,12.6
	c-7.4,3-15.7,4.8-23.5,5.2c-8.7,0.9-17.4,0.9-26.1,0c-13.1-1.3-25.7-4.4-38.3-8.7c-4.4-1.3-8.7-3-13.1-4.8c-0.4-7-0.9-14.4-1.3-21.3
	c7.4,3.5,15.2,6.5,23.5,8.7c10.9,3,22.6,4.8,34,3.9c4.4-0.4,8.7-0.9,13.1-2.2c2.2-0.9,4.4-1.7,6.1-3c0.9-0.9,1.7-2.2,1.3-3.5
	c-0.4-1.7-1.3-2.6-2.6-3.9c-2.6-2.2-5.7-3.5-8.7-4.8c-3.5-1.3-7.4-2.6-10.9-3c-7.8-1.7-16.1-3.5-23.9-5.7c-8.3-2.6-16.5-5.2-23.9-10
	c-3.9-2.6-7.4-6.1-9.1-10.4c-1.7-3.5-1.7-7.8-1.3-11.3c0.9-5.7,3.5-10.9,7.4-15.2c3.9-4.4,9.1-7.4,14.4-9.1
	c6.1-2.6,13.1-3.9,19.6-4.4c10.4-0.9,21.3,0,31.8,1.3C123.5,45.4,134.4,47.5,144.8,50.2L144.8,50.2z"/>
<path class="st0" d="M184.6,169l-10.3-8.6c-1.7,2.1-3.4,3.9-5.6,6c-4.3,4.3-9.5,8.6-14.6,12c-5.2,3.4-10.7,6.4-16.3,9l6,11.6
	C160.1,192.1,173.5,181.8,184.6,169z M131.8,175c-4.3,1.7-9,3-13.3,4.3c-6,1.3-12.5,2.1-18.5,2.1c-11.2,0-22.3-2.1-32.6-6.4
	c-4.7-2.1-9.9-4.7-14.2-7.7c-4.3-3-8.6-6.4-12.5-10.3c-3.9-3.9-7.3-7.7-10.3-12.5c-3-4.3-5.6-9.5-7.7-14.2
	c-4.3-10.3-6.4-21.1-6.4-32.6s2.1-22.3,6.4-32.6c2.1-4.7,4.7-9.9,7.7-14.2s6.4-8.6,10.3-12.5c3.9-3.9,7.7-7.3,12.5-10.3
	c4.3-3,9.5-5.6,14.2-7.7c10.3-4.3,21.1-6.4,32.6-6.4s22.3,2.1,32.6,6.4c4.7,2.1,9.9,4.7,14.2,7.7c4.3,3,8.6,6.4,12.5,10.3
	c3.9,3.9,7.3,7.7,10.3,12.5c3,4.3,5.6,9.5,7.7,14.2c4.3,10.3,6.4,21.1,6.4,32.6c0,10.3-1.7,20.2-5.6,29.6c-3.4,9-8.2,17.2-14.6,24.1
	l10.3,8.6c14.2-16.8,22.8-38.7,22.8-62.3C196.7,44.4,153.3,1,100,1S3.3,44.4,3.3,97.6s43.4,96.7,96.7,96.7c13.3,0,26.2-2.6,37.8-7.7
	L131.8,175L131.8,175z"/>
</svg>
