<?xml version="1.0" encoding="utf-8"?>
<!-- Generator: Adobe Illustrator 24.0.1, SVG Export Plug-In . SVG Version: 6.00 Build 0)  -->
<svg version="1.1" id="图层_1" xmlns="http://www.w3.org/2000/svg" xmlns:xlink="http://www.w3.org/1999/xlink" x="0px" y="0px"
	 viewBox="0 0 200 200" style="enable-background:new 0 0 200 200;" xml:space="preserve">
<style type="text/css">
	.st0{fill:#0099FF;}
	.st1{fill:#FFFFFF;}
</style>
<path class="st0" d="M32.7,0h134.6C185.4,0,200,14.6,200,32.7v134.6c0,18.1-14.6,32.7-32.7,32.7H32.7C14.6,200,0,185.4,0,167.3V32.7
	C0,14.6,14.6,0,32.7,0z"/>
<g>
	<circle class="st1" cx="51.4" cy="39.1" r="10.4"/>
	<g>
		<path class="st1" d="M62.1,58.8l0-1.5l-1.7,0c-12,0.3-24.5,0.6-36.7,0.8l-1.5,0v14.5l26.1-0.9c-0.1,14.5-0.2,27.1-0.3,41.6
			c-0.1,14.9-0.2,29.8-0.3,44.7l0,1.5h13.8l0-1.5C61.5,150,62,74.1,62.1,58.8z"/>
		<path class="st1" d="M158.1,130.5c-1.2-1-2.4-1.9-3.6-2.9l-0.4-0.3l-31.8,1.2v-15.7H151l-2.6-2.6c-1-1-2-2-3-3c-1-1-2-1.9-3-2.9
			l-0.4-0.4h-19.8V89.2l-0.6-0.5c-4.5-3.4-9.2-7-13.8-10.6l-0.1-0.1c1.1-1.3,2.3-2.6,3.3-3.9c7.4,4.2,15,7.9,22.8,11.1
			c7,2.9,14.3,5.4,22,7.8l0.7,0.2l21.2-14.8l-3.6-0.6c-4.3-0.7-9.4-1.6-15.3-3.1c-11.4-2.8-19.4-5.7-20.9-6.3
			c-4.7-1.7-9.6-3.7-15.1-6.2c4.2-4.8,7.8-9.5,11-14.3c3.4-5,6.4-10.2,9.2-15.3l0.6-1.1l-1-0.8c-1.6-1.2-3.3-2.5-4.9-3.8
			c-1.7-1.3-3.3-2.6-5-3.8l-1.5-1.2l-0.7,1.8c-0.7,1.8-1.5,3.5-2.4,5.3l-0.4,0.9c-9.3,0.1-18.5,0.2-27.8,0.3
			c-9.6,0.1-19.1,0.3-28.7,0.4l-3.6,0l2.5,2.5c0.8,0.8,1.5,1.5,2.2,2.4l0.4,0.5l0.7,0c2.7,0.2,5.2,0.4,8,0.7
			c0.1,0.2,0.2,0.4,0.3,0.6c0.3,0.7,0.6,1.6,1,2.4c0.7,1.6,3.2,7.2,6.1,12c3,5,7,9.7,11.7,14.2c-1,1-2.1,2.2-3.3,3.6l-4.7,5
			c-2.8,3-6.4,6.8-10.3,10.7c-4.3,4.3-9.6,9.6-16.2,15.7l-3.5,3.2v0.8l5-1.5c9.4-2.9,18.1-7.1,25.9-12.6c4.4-3.1,8.4-6.6,12.1-10.4
			V105H68.6l2.8,2.6c0.9,0.8,1.7,1.6,2.6,2.4c0.9,0.8,1.7,1.5,2.6,2.3l0.4,0.4h28.4v15.8H66.7l-4.3,4.3v1.6l0.7,0.4
			c1.4,0.8,2.9,1.6,4.4,2.3l0.3,0.1l37.7,1.2V178l16.8-15.7v-23.9h46l-3.5-2.7C162.5,134,160.2,132.2,158.1,130.5z M102.9,51.6
			c-4.4-3.9-8.2-8.4-11.3-13.4l31.3,2.1c-3.4,6.1-7.6,11.8-12.4,17C108.1,55.8,105.6,53.9,102.9,51.6z"/>
	</g>
</g>
</svg>
