<svg xmlns="http://www.w3.org/2000/svg" viewBox="0 0 247.14 247.14"><defs><style>.cls-1{fill:#e5e5e5;}.cls-2{fill:#666;}.cls-3{fill:none;stroke:#666;stroke-miterlimit:10;stroke-width:14px;}</style></defs><title>资源 6</title><g id="图层_2" data-name="图层 2"><g id="图层_1-2" data-name="图层 1"><circle class="cls-1" cx="123.57" cy="123.57" r="123.57"/><path class="cls-2" d="M218.59,119.72c-10.72-13.31-49.24-56.45-95-56.45s-84,43.14-95,56.45a6.16,6.16,0,0,0,0,7.7c10.78,13.31,49.3,56.45,95,56.45s84.3-43.14,95-56.45a6.16,6.16,0,0,0,0-7.7Zm-95,51.76c-37,0-69.2-32.84-82.2-47.94,13-15.1,45.54-47.94,82.2-47.94s69.2,32.84,82.33,47.94c-13.13,15.1-45.67,47.94-82.33,47.94Z"/><circle class="cls-3" cx="123.57" cy="123.57" r="22.73"/></g></g></svg>