<?xml version="1.0" encoding="utf-8"?>
<!-- Generator: Adobe Illustrator 24.0.1, SVG Export Plug-In . SVG Version: 6.00 Build 0)  -->
<svg version="1.1" id="图层_1" xmlns="http://www.w3.org/2000/svg" xmlns:xlink="http://www.w3.org/1999/xlink" x="0px" y="0px"
	 viewBox="0 0 200 200" style="enable-background:new 0 0 200 200;" xml:space="preserve">
<style type="text/css">
	.st0{fill:#D92916;}
	.st1{fill:#FFFFFF;}
</style>
<path class="st0" d="M40.6,1.6h118.2c21.8,0,39.4,17.6,39.4,39.4v118.3c0,21.8-17.6,39.4-39.4,39.4H40.6
	c-21.8,0-39.4-17.6-39.4-39.4V41C1.2,19.2,18.8,1.6,40.6,1.6z"/>
<path class="st1" d="M128.6,27c4.7,1.1,9,3.3,12.8,6.2c1.4,1,2.6,2.4,3.3,4c1,2.5,0.8,5.4-0.7,7.6c-2.4,3.8-7.4,4.9-11.2,2.5
	c-0.9-0.6-1.6-1.4-2.5-1.9c-2.4-1.7-5.2-2.6-8.2-2.7c-2,0.2-3.9,1.2-5.2,2.7c-1.3,1.4-1.9,3.3-1.6,5.2l3,11.4
	c7.3,0.3,14.4,2.3,20.6,6c6.1,3.7,11.4,8.5,15.8,14.2c3.7,4.9,6.5,10.5,8.2,16.4c1.8,6.1,2.5,12.5,2,18.9
	c-0.4,5.4-1.5,10.6-3.3,15.7c-4.7,12.4-13.3,23-24.5,30.1c-8.2,5.1-17.5,8.4-27.1,9.5c-6.6,1-13.3,1-19.9,0
	c-13.6-2.4-26.2-9-35.8-19C37.6,136.8,30.6,112.4,35.9,89c4.9-22.2,20.3-40.5,41.4-49.1c3-1.2,6.3-1,9.2,0.5
	c2.4,1.8,3.7,4.7,3.4,7.7c-0.4,3-2.4,5.6-5.2,6.7c-18,6.9-30.9,23.1-33.4,42.2c-1.2,8.8-0.2,17.7,2.9,26
	c4.5,12.1,13.2,22.2,24.5,28.3c6.9,3.6,14.5,5.5,22.3,5.4c6.4,0,12.7-1.2,18.7-3.4c10.3-3.7,19-11.1,24.2-20.8
	c1.3-2.3,2.3-4.8,3.1-7.4c2.2-7.4,2.2-15.3,0-22.8c-1.9-6.2-5.5-11.7-10.4-16c-2.1-1.9-4.4-3.6-6.9-5c-2.2-1.2-4.5-2.1-6.9-2.6
	c1.6,6.5,3.4,13.1,5.1,19.7l0.8,4.7c0.4,13.7-9.1,25.7-22.5,28.3c-6.8,1.4-13.8,0-19.6-3.7c-5.4-3.6-9.5-8.9-11.6-15.1
	c-1.2-3.5-1.8-7.1-2-10.7c-0.4-8,1.8-15.9,6.2-22.6c5.5-7.7,13.6-13.3,22.7-15.7l-2-7.6c-1.7-5.4-1.2-11.3,1.2-16.4
	c1.4-2.8,3.4-5.4,5.9-7.4c2.5-2.4,5.5-4.2,8.7-5.4C120.1,26,124.5,25.9,128.6,27L128.6,27z"/>
<path class="st0" d="M94.9,86.7c-2.4,2.6-4.1,5.7-4.8,9.2c-0.6,3.1-0.6,6.4,0,9.5c0.6,3.5,2.6,6.7,5.4,8.8c2.4,1.6,5.4,2.2,8.2,1.6
	c5.2-1,9-5.4,9.2-10.6c-0.2-1.3-0.4-2.5-0.7-3.8L106.5,80C102.1,81.2,98.1,83.5,94.9,86.7L94.9,86.7z"/>
</svg>
